<svg xmlns="http://www.w3.org/2000/svg" version="1.0" viewBox="0 0 600 600" preserveAspectRatio="xMidYMid meet" x="0px" y="0px">
<g transform="translate(0.000000,600.000000) scale(0.100000,-0.100000)" fill="#000000" stroke="none"><path d="M2570 5674 c-84 -8 -209 -34 -287 -60 -368 -123 -659 -414 -783 -781 -16 -50 -30 -95 -30 -101 0 -5 46 -12 102 -16 426 -30 789 -231 1016 -564 170 -250 259 -585 224 -852 -5 -41 -8 -77 -6 -79 5 -5 213 35 220 42 3 3 -15 42 -40 88 -188 351 -199 790 -30 1158 81 176 248 380 409 499 39 29 121 78 183 109 61 31 112 60 112 64 0 16 -178 193 -246 245 -145 109 -339 195 -512 228 -86 16 -258 26 -332 20z"/><path d="M3925 5175 c-38 -7 -88 -18 -111 -24 l-41 -11 53 -105 c190 -380 191 -805 1 -1181 -127 -251 -358 -476 -602 -585 -41 -19 -75 -39 -75 -44 0 -12 105 -134 130 -152 16 -11 24 -2 76 80 72 114 245 292 359 367 456 305 1028 304 1473 -3 85 -58 80 -61 116 53 47 146 59 226 59 390 1 216 -36 375 -128 554 -178 349 -517 599 -895 661 -113 18 -317 18 -415 0z"/><path d="M3603 5071 c-128 -62 -229 -135 -339 -245 -206 -207 -321 -445 -355 -739 -26 -229 23 -492 133 -697 58 -111 52 -108 144 -66 376 174 651 546 705 953 13 99 7 317 -11 403 -32 155 -144 421 -180 428 -8 1 -52 -15 -97 -37z"/><path d="M1447 4614 c-12 -71 -7 -290 8 -380 67 -386 321 -725 669 -894 170 -82 302 -117 487 -127 108 -5 116 -5 123 13 4 10 10 78 13 149 14 352 -120 681 -378 930 -219 211 -488 326 -800 342 l-116 6 -6 -39z"/><path d="M1230 4615 c-406 -105 -711 -371 -860 -750 -172 -442 -77 -937 248 -1294 l58 -64 41 69 c101 169 275 341 449 446 224 135 517 202 772 178 236 -22 474 -108 637 -229 28 -21 55 -40 62 -44 10 -6 59 109 76 184 l7 26 -108 7 c-347 23 -623 147 -863 386 -113 113 -175 198 -243 337 -100 203 -131 341 -131 591 l0 182 -25 0 c-14 -1 -68 -12 -120 -25z"/><path d="M4249 3666 c-371 -66 -688 -286 -873 -608 l-27 -46 43 -34 c303 -240 752 -315 1132 -187 206 69 392 193 540 359 51 58 166 227 166 245 0 16 -108 91 -200 139 -201 103 -325 135 -550 141 -103 3 -180 0 -231 -9z"/><path d="M5220 3247 c-117 -184 -306 -351 -515 -455 -297 -148 -655 -172 -980 -65 -103 33 -241 102 -330 164 -38 26 -73 45 -78 40 -11 -11 -67 -172 -67 -193 0 -16 10 -18 78 -18 145 0 333 -41 485 -106 325 -139 588 -422 711 -762 57 -158 86 -394 68 -547 -5 -44 -8 -81 -7 -83 1 -2 49 7 106 18 580 118 989 621 989 1215 0 238 -78 491 -210 685 -45 65 -168 210 -178 210 -4 -1 -36 -47 -72 -103z"/><path d="M1676 3129 c-284 -37 -546 -172 -748 -387 -64 -68 -147 -182 -181 -248 l-16 -32 72 -49 c154 -106 299 -168 468 -204 135 -28 344 -30 472 -5 353 69 670 292 837 590 l34 59 -36 31 c-56 48 -203 133 -292 167 -200 77 -408 104 -610 78z"/><path d="M2644 2768 c-9 -18 -36 -61 -61 -95 -185 -263 -439 -436 -758 -519 -137 -36 -366 -44 -516 -19 -194 32 -371 103 -528 210 l-81 55 -15 -36 c-127 -305 -110 -709 44 -1009 178 -348 484 -580 871 -662 123 -25 352 -23 484 5 54 11 100 23 103 26 3 3 -18 50 -46 104 -108 212 -147 390 -138 646 4 129 10 181 30 258 60 229 180 441 342 603 108 110 206 180 340 247 55 27 100 53 100 58 0 16 -127 160 -141 160 -8 0 -21 -15 -30 -32z"/><path d="M3085 2635 c-38 -7 -89 -18 -112 -24 l-42 -12 33 -57 c175 -298 214 -708 100 -1050 -55 -165 -156 -336 -279 -470 -110 -119 -290 -249 -421 -303 -30 -13 -54 -28 -54 -34 0 -7 36 -51 81 -99 191 -204 432 -334 709 -382 121 -21 345 -14 470 15 409 94 750 397 887 791 17 47 33 97 37 112 l6 28 -77 0 c-458 0 -911 281 -1126 697 -108 209 -152 408 -144 651 2 83 4 152 3 151 0 0 -32 -7 -71 -14z"/><path d="M3226 2613 c-14 -86 -6 -304 14 -404 101 -494 482 -874 972 -970 114 -22 283 -28 301 -10 20 20 16 328 -6 427 -53 250 -167 463 -338 634 -227 227 -537 360 -840 360 l-96 0 -7 -37z"/><path d="M2760 2530 c-120 -59 -212 -123 -309 -215 -251 -239 -383 -542 -384 -880 -1 -214 39 -388 128 -565 70 -137 56 -131 166 -78 247 121 442 312 566 554 92 179 133 352 133 559 0 142 -18 258 -60 388 -34 105 -119 270 -140 275 -8 1 -53 -16 -100 -38z"/></g></svg>